<svg xmlns="http://www.w3.org/2000/svg" width="257.69" height="238.758" viewBox="0 0 257.69 238.758">
    <defs>
        <filter id="lq2vug9mpa" width="248.518" height="238.758" x="9.171" y="0" filterUnits="userSpaceOnUse">
            <feOffset dx="-3" dy="2"/>
            <feGaussianBlur result="blur" stdDeviation="3"/>
            <feFlood flood-opacity=".161"/>
            <feComposite in2="blur" operator="in"/>
            <feComposite in="SourceGraphic"/>
        </filter>
    </defs>
    <g>
        <path fill="#cdf5ed" d="M152.731 133.558v-11.866a33.7 33.7 0 0 0-.676-9.249 43.631 43.631 0 0 0-9.67-19.795c-12.257-14.372-33.773-22.412-63.95-23.9-27.633-.293-48.4-7.441-61.718-21.244A57.9 57.9 0 0 1 2.658 22.368 78.135 78.135 0 0 1 .025 0h109.092a73.869 73.869 0 0 1 56.092 122.009 74.425 74.425 0 0 1-12.475 11.548z" transform="translate(-6.977 -52.666) rotate(14 -356.621 206.183)"/>
        <path fill="#adeee1" d="M155.15 136.325v-11.992a35.156 35.156 0 0 0-.7-9.493 44.7 44.7 0 0 0-9.908-20.29c-12.468-14.615-34.293-22.794-64.869-24.307-27.989-.3-49.045-7.561-62.582-21.587A59.221 59.221 0 0 1 2.719 22.918a75.4 75.4 0 0 1-2.3-12.449A83.839 83.839 0 0 1 .026 0h110.385a75.439 75.439 0 0 1 75.5 75.5 75.534 75.534 0 0 1-30.76 60.822z" transform="translate(-6.977 -52.666) rotate(25 -129.182 191.597)"/>
        <g filter="url(#lq2vug9mpa)" transform="translate(-6.977 -52.666) translate(6.98 52.67)">
            <path fill="#14cea9" d="M155.15 136.325v-11.992a35.156 35.156 0 0 0-.7-9.493 44.7 44.7 0 0 0-9.908-20.29c-12.468-14.615-34.293-22.794-64.869-24.307-27.989-.3-49.045-7.561-62.582-21.587A59.221 59.221 0 0 1 2.719 22.918a75.4 75.4 0 0 1-2.3-12.449A83.839 83.839 0 0 1 .026 0h110.385a75.439 75.439 0 0 1 75.5 75.5 75.534 75.534 0 0 1-30.76 60.822z" transform="rotate(37 41.145 157.731)"/>
        </g>
    </g>
</svg>
