<svg xmlns="http://www.w3.org/2000/svg" id="at" width="35" height="35" viewBox="0 0 35 35">
    <defs>
        <style>
            .cls-1{fill:#4c4c4f}
        </style>
    </defs>
    <g id="Group_16" data-name="Group 16" transform="translate(14.492 14.355)">
        <g id="Group_15" data-name="Group 15">
            <path id="Path_361" d="M215.077 210a3.077 3.077 0 1 0 3.077 3.077 3.08 3.08 0 0 0-3.077-3.077z" class="cls-1" data-name="Path 361" transform="translate(-212 -210)"/>
        </g>
    </g>
    <g id="Group_18" data-name="Group 18">
        <g id="Group_17" data-name="Group 17">
            <path id="Path_362" d="M17.432 0a17.5 17.5 0 0 0 0 35A17.686 17.686 0 0 0 35 17.432 17.569 17.569 0 0 0 17.432 0zm7.314 22.559a4.093 4.093 0 0 1-3.351-1.75 5.129 5.129 0 1 1-.751-7.453v-.026a1.025 1.025 0 1 1 2.051 0v5.127a2.051 2.051 0 0 0 4.1 0C26.8 11.594 22.256 8.2 17.568 8.2a9.229 9.229 0 1 0 0 18.457 9.129 9.129 0 0 0 5.61-1.9 1.025 1.025 0 0 1 1.25 1.626 11.169 11.169 0 0 1-6.859 2.325 11.279 11.279 0 1 1 0-22.559c5.667 0 11.279 4.179 11.279 12.3a4.106 4.106 0 0 1-4.102 4.11z" class="cls-1" data-name="Path 362"/>
        </g>
    </g>
</svg>
