<svg xmlns="http://www.w3.org/2000/svg" width="35" height="35" viewBox="0 0 35 35">
    <defs>
        <linearGradient id="linear-gradient" x1=".846" x2=".207" y1=".148" y2=".794" gradientUnits="objectBoundingBox">
            <stop offset="0" stop-color="#0bd57b"/>
            <stop offset="1" stop-color="#00b162"/>
        </linearGradient>
    </defs>
    <g id="bale_avatar" transform="translate(-942.282 -2335.282)">
        <circle id="avatar-mask" cx="17.5" cy="17.5" r="17.5" fill="url(#linear-gradient)" transform="translate(942.282 2335.282)"/>
        <circle id="avatar-mask-2" cx="17.5" cy="17.5" r="17.5" fill="#4c4c4f" data-name="avatar-mask" transform="translate(942.282 2335.282)"/>
        <path id="Shape_2022" fill="#fff" d="M986.466 2366.209a9.38 9.38 0 0 0-5.766-3.112h-.016c-.14-.019-.282-.037-.424-.048-.048 0-.1-.009-.144-.011-.1-.009-.209-.016-.312-.021h-.673l-.181.007c-.064 0-.13.007-.195.011l-.178.014c-.064 0-.131.011-.2.019l-.176.021-.19.028-.174.025-.191.034-.172.034-.188.041-.167.039-.188.05c-.062.016-.111.03-.163.046l-.186.055c-.062.018-.108.034-.161.053l-.181.062-.158.057c-.051.018-.121.048-.181.071l-.154.062c-.059.025-.119.053-.178.08s-.1.041-.147.064l-.179.087c-.048.023-.1.046-.142.071s-.119.062-.176.094-.092.048-.138.076-.119.069-.179.1l-.126.076c-.064.039-.128.08-.19.121-.036.023-.4.273-.4.273a27.679 27.679 0 0 0-2.4-1.663 1.026 1.026 0 0 0-1.5.91v8.374a9.4 9.4 0 0 0 8.781 9.379l.085.007c.093 0 .188.007.284.009.058 0 .115.007.174.007h.286c.071 0 .158 0 .236-.007l.245-.016.234-.018c.08-.009.16-.018.241-.03s.155-.019.231-.03.158-.026.239-.039.151-.025.227-.041.156-.034.234-.053.149-.032.222-.051l.23-.064c.073-.021.147-.039.218-.062l.225-.076c.074-.025.142-.046.213-.071l.22-.085.209-.082c.074-.03.145-.064.216-.1s.135-.06.2-.092.14-.069.208-.105l.2-.1c.069-.037.133-.076.2-.115s.129-.073.193-.112.13-.083.2-.124.124-.078.186-.12.128-.089.19-.135.122-.083.181-.126l.183-.145c.057-.043.115-.089.172-.135s.119-.1.179-.153.11-.094.163-.142l.172-.16c.057-.052.105-.1.156-.151s.11-.113.163-.17.1-.1.151-.156.1-.119.153-.177.1-.11.143-.165.1-.122.147-.183l.134-.173c.045-.058.09-.126.135-.19l.127-.179c.045-.064.087-.133.128-.2s.08-.124.117-.186l.119-.2c.039-.065.074-.126.11-.19s.074-.142.108-.213.069-.126.1-.192l.1-.22c.034-.073.06-.131.087-.2l.092-.227c.03-.075.053-.133.078-.2s.053-.158.08-.237l.069-.2c.025-.08.046-.163.069-.246.018-.067.039-.133.057-.2.023-.085.039-.17.06-.252s.032-.135.045-.2c.018-.087.032-.174.048-.264.011-.067.025-.133.034-.2.016-.094.025-.186.037-.28.007-.064.019-.128.025-.193.01-.105.016-.211.023-.316l.015-.163c.006-.152.009-.305.011-.459v-.025a9.354 9.354 0 0 0-2.324-6.206zm-1.58 4.994l-5.456 5.46a1.837 1.837 0 0 1-2.6 0l-2.921-2.924a1.834 1.834 0 0 1 2.593-2.594l1.626 1.626 4.161-4.162a1.834 1.834 0 0 1 2.593 2.593z" data-name="Shape 2022" transform="translate(-19.759 -19.765)"/>
    </g>
</svg>
