<svg xmlns="http://www.w3.org/2000/svg" id="instagram" width="35" height="35" viewBox="0 0 35 35">
    <defs>
        <style>
            .cls-1{fill:#4c4c4f}
        </style>
    </defs>
    <path id="Path_358" d="M214.008 210.5a3.5 3.5 0 1 1-3.5-3.5 3.5 3.5 0 0 1 3.5 3.5zm0 0" class="cls-1" data-name="Path 358" transform="translate(-193.004 -193.004)"/>
    <path id="Path_359" d="M152.3 137.907a3.481 3.481 0 0 0-2-2 5.817 5.817 0 0 0-1.952-.362c-1.109-.051-1.441-.061-4.248-.061s-3.139.011-4.248.061a5.821 5.821 0 0 0-1.952.362 3.483 3.483 0 0 0-2 2 5.818 5.818 0 0 0-.362 1.952c-.051 1.108-.061 1.441-.061 4.248s.011 3.139.061 4.248a5.816 5.816 0 0 0 .362 1.952 3.481 3.481 0 0 0 2 2 5.81 5.81 0 0 0 1.952.362c1.108.051 1.441.061 4.248.061s3.14-.011 4.248-.061a5.81 5.81 0 0 0 1.952-.362 3.481 3.481 0 0 0 2-2 5.82 5.82 0 0 0 .362-1.952c.051-1.109.061-1.441.061-4.248s-.011-3.139-.061-4.248a5.808 5.808 0 0 0-.362-1.952zm-8.2 11.593a5.4 5.4 0 1 1 5.4-5.4 5.4 5.4 0 0 1-5.4 5.4zm5.611-9.748a1.261 1.261 0 1 1 1.261-1.261 1.262 1.262 0 0 1-1.258 1.265zm0 0" class="cls-1" data-name="Path 359" transform="translate(-126.602 -126.606)"/>
    <path id="Path_360" d="M17.5 0A17.5 17.5 0 1 0 35 17.5 17.5 17.5 0 0 0 17.5 0zm9.988 21.643a7.373 7.373 0 0 1-.467 2.439 5.138 5.138 0 0 1-2.939 2.939 7.378 7.378 0 0 1-2.439.467c-1.072.049-1.414.061-4.143.061s-3.071-.012-4.143-.061a7.378 7.378 0 0 1-2.439-.467 5.138 5.138 0 0 1-2.939-2.939 7.371 7.371 0 0 1-.467-2.439c-.049-1.072-.061-1.414-.061-4.143s.011-3.071.061-4.143a7.373 7.373 0 0 1 .467-2.439 5.142 5.142 0 0 1 2.939-2.939 7.379 7.379 0 0 1 2.439-.467c1.072-.049 1.414-.061 4.143-.061s3.071.012 4.143.061a7.381 7.381 0 0 1 2.439.466 5.14 5.14 0 0 1 2.939 2.939 7.372 7.372 0 0 1 .467 2.439c.049 1.072.06 1.414.06 4.143s-.011 3.072-.06 4.144zm0 0" class="cls-1" data-name="Path 360"/>
</svg>
