<svg xmlns="http://www.w3.org/2000/svg" width="100" height="50" viewBox="0 0 100 50">
  <defs>
    <style>
      .cls-0 {
        fill: none;
      }

      .cls-2 {
        fill: #00ca46;
      }

      .cls-3 {
        fill: #ffb102;
      }
    </style>
  </defs>
  <g id="logo_baloot" transform="translate(53.493 -59.943)">
    <rect id="wrp" class="cls-0" width="100" height="50" transform="translate(-53.493 59.943)"/>
    <path id="b" class="cls-2" d="M21.715,187.3a1.587,1.587,0,0,1-1.578,1.6h-.009a1.587,1.587,0,0,1-1.587-1.578,16.7,16.7,0,0,1,2.5-9.122l-2.605-1.84c-3.521,5.854-3.512,13.31-1.821,18.484a22.811,22.811,0,0,1,.356,3.47,1.112,1.112,0,0,0,1.424,1.006,22.478,22.478,0,0,1,3.391-.824c5.442-.138,12.47-2.623,16.81-7.9L23.633,180.027A13.649,13.649,0,0,0,21.715,187.3Z" transform="translate(0 -91.417)"/>
    <path id="a" class="cls-3" d="M56.4,78.975c3.533-9.734,3.554-15.585,3.551-15.937a2.645,2.645,0,0,0-5.289.03c0,.073-.054,4.8-2.8,12.847A13.592,13.592,0,0,0,35.59,80.648a1.2,1.2,0,0,0,.286,1.665l20.255,14.3a1.194,1.194,0,0,0,1.665-.287A13.593,13.593,0,0,0,56.4,78.975Z" transform="translate(-15.662 0)"/>
    <path id="text" class="cls-2" d="M-52.693.018a11.826,11.826,0,0,1-2.484-.533A15.849,15.849,0,0,1-58-1.771l1.265-4.065a6.217,6.217,0,0,0,1.039.741,8.983,8.983,0,0,0,1.165.56v-17h4.209V-8.058q.723-.795,1.563-1.572a19.588,19.588,0,0,1,1.771-1.454,15.063,15.063,0,0,1,1.942-1.2,9.571,9.571,0,0,1,2.1-.795,8.74,8.74,0,0,1,2.249-.253,7.636,7.636,0,0,1,2.367.434,4.513,4.513,0,0,1,1.626.976,6.551,6.551,0,0,1,1.229,1.545A7.9,7.9,0,0,1-34.7-8.518a7.172,7.172,0,0,1,.271,1.906,6.421,6.421,0,0,1-.515,2.556,6.619,6.619,0,0,1-1.409,2.1A6.647,6.647,0,0,1-38.438-.551a6.356,6.356,0,0,1-2.547.515Zm11.635-4.282a2.8,2.8,0,0,0,1.111-.2A2.128,2.128,0,0,0-39.188-5a2.188,2.188,0,0,0,.443-.759,2.34,2.34,0,0,0,.126-.858,2.768,2.768,0,0,0-.172-.849,2.158,2.158,0,0,0-.461-.741A2.578,2.578,0,0,0-40-8.744a2.925,2.925,0,0,0-1.021-.271,5.132,5.132,0,0,0-1.536.126,7.539,7.539,0,0,0-1.536.542,11.946,11.946,0,0,0-1.49.849,16.062,16.062,0,0,0-1.391,1.039q-.659.551-1.238,1.12t-1.03,1.075ZM-16.417-.036h-3.144a8.86,8.86,0,0,1-1.653,3.577,7.98,7.98,0,0,1-2.7,2.2,9.094,9.094,0,0,1-3.4.9,11.86,11.86,0,0,1-3.74-.334V2.078a8.164,8.164,0,0,0,2.132.56,6.493,6.493,0,0,0,2.168-.072,4.374,4.374,0,0,0,1.825-.84,3.317,3.317,0,0,0,1.12-1.761,8.049,8.049,0,0,1-1.581.108,9.008,9.008,0,0,1-1.8-.226,8.3,8.3,0,0,1-1.8-.632,5.5,5.5,0,0,1-1.572-1.147A5.374,5.374,0,0,1-31.665-3.7a6.7,6.7,0,0,1-.416-2.475V-9.864a6.356,6.356,0,0,1,.515-2.547A6.647,6.647,0,0,1-30.157-14.5a6.619,6.619,0,0,1,2.1-1.409,6.421,6.421,0,0,1,2.556-.515,6.356,6.356,0,0,1,2.547.515A6.647,6.647,0,0,1-20.871-14.5a6.775,6.775,0,0,1,1.418,2.087,6.262,6.262,0,0,1,.524,2.547v2.493q0,.958-.009,1.554t-.018.93q-.009.334-.027.623h2.565ZM-27.835-9.774v3.125a2.47,2.47,0,0,0,.2,1.021,2.329,2.329,0,0,0,.524.75,2.409,2.409,0,0,0,.741.479,2.518,2.518,0,0,0,.867.19h2.349V-9.774a2.865,2.865,0,0,0-.2-1.12,2.2,2.2,0,0,0-.533-.777,2.015,2.015,0,0,0-.759-.443,2.465,2.465,0,0,0-.858-.117,2.517,2.517,0,0,0-.867.19,2.33,2.33,0,0,0-.741.488,2.438,2.438,0,0,0-.524.759A2.47,2.47,0,0,0-27.835-9.774Zm17.9-11.761V-6.648a2.47,2.47,0,0,0,.2,1.021,2.226,2.226,0,0,0,.524.741,2.333,2.333,0,0,0,.75.461,2.383,2.383,0,0,0,.858.163V-.036A6.438,6.438,0,0,1-10.041-.5a6.657,6.657,0,0,1-2.023-1.274A6.657,6.657,0,0,1-14.088-.5a6.438,6.438,0,0,1-2.439.461V-4.264a2.383,2.383,0,0,0,.858-.163,2.442,2.442,0,0,0,.759-.461,2.27,2.27,0,0,0,.542-.741,2.377,2.377,0,0,0,.208-1.021V-21.535Zm8.815,7.985v6.956a6.325,6.325,0,0,1-.524,2.556A6.635,6.635,0,0,1-3.061-1.951a6.7,6.7,0,0,1-2.1,1.4,6.421,6.421,0,0,1-2.556.515V-4.264a2.383,2.383,0,0,0,.858-.163A2.442,2.442,0,0,0-6.1-4.887a2.27,2.27,0,0,0,.542-.741,2.377,2.377,0,0,0,.208-1.021v-6.9ZM-4.28,2.294-1.227,5.33-4.28,8.347-7.3,5.33Z" transform="translate(6.507 97.943)"/>
  </g>
</svg>
