<svg width="19" height="17" viewBox="0 0 19 17" fill="none" xmlns="http://www.w3.org/2000/svg">
<circle cx="8.5" cy="8.5" r="7.5" stroke="#96E9D8" stroke-width="2"/>
<path d="M16.9993 2.59905L17.7241 3.28954L17.724 3.28967L11.1724 10.1689C9.99016 11.4103 8.00984 11.4103 6.82757 10.1689L4.54758 7.77491C4.02761 7.22893 4.02761 6.37096 4.54758 5.82498M16.9993 2.59905L4.54758 5.82498M16.9993 2.59905L16.9815 2.58217L16.7136 2.30039C16.6791 2.26411 16.6394 2.23588 16.5968 2.2157L16.276 1.9101C16.5678 1.60384 17.0059 1.52439 17.3736 1.67269C17.5015 1.72431 17.6209 1.80352 17.7226 1.91036M16.9993 2.59905L4.54758 5.82498M4.54758 5.82498C5.10471 5.23998 6.03791 5.23998 6.59504 5.82498L5.99587 6.39561L6.59504 5.82498L8.27578 7.58977C8.66988 8.00359 9.33002 8.00357 9.7241 7.58973L15.4178 1.61059C15.9676 1.03321 16.8887 1.03352 17.4382 1.61125L17.7226 1.91036M17.7226 1.91036L17.723 1.91075L17.7234 1.91112C17.7231 1.91087 17.7229 1.91061 17.7226 1.91036Z" fill="#14CEA9" stroke="white" stroke-width="2"/>
</svg>
